<svg width="45" height="45" viewBox="0 0 45 45" fill="none" xmlns="http://www.w3.org/2000/svg">
<path d="M25.5332 40.0631C24.7202 40.8244 23.6332 41.25 22.5021 41.25C21.3709 41.25 20.2841 40.8244 19.4709 40.0631C12.0244 33.0488 2.04518 25.2129 6.91176 13.8369C9.54306 7.68593 15.8594 3.75 22.5021 3.75C29.1448 3.75 35.4611 7.68593 38.0925 13.8369C42.9529 25.1987 32.9981 33.0729 25.5332 40.0631Z" fill="#397E08" stroke="#397E08" stroke-width="4"/>
<path d="M29.0625 20.625C29.0625 24.2494 26.1244 27.1875 22.5 27.1875C18.8756 27.1875 15.9375 24.2494 15.9375 20.625C15.9375 17.0006 18.8756 14.0625 22.5 14.0625C26.1244 14.0625 29.0625 17.0006 29.0625 20.625Z" stroke="#FAFAFA" stroke-width="4"/>
</svg>
