<svg width="45" height="45" viewBox="0 0 45 45" fill="none" xmlns="http://www.w3.org/2000/svg">
<path d="M8.88821 26.9409L12.5503 24.3405C13.5833 23.607 14.6307 23.1154 15.8256 22.7972C17.1975 22.4318 17.8125 21.6833 17.8125 20.0831C17.8125 16.0243 27.1875 15.5924 27.1875 20.0831C27.1875 21.6833 27.8025 22.4318 29.1744 22.7972C30.3787 23.1178 31.4248 23.6126 32.4497 24.3405L36.1117 26.9409C37.7689 28.1177 38.5401 28.6866 38.9704 29.5911C39.375 30.4421 39.375 31.44 39.375 33.4358C39.375 37.0239 39.375 38.8181 38.3704 39.9683C37.1535 41.3612 33.99 41.2416 32.0469 41.2416H12.9531C11.0099 41.2416 7.91079 41.4349 6.62962 39.9683C5.625 38.8181 5.625 37.0239 5.625 33.4358C5.625 31.44 5.625 30.4421 6.0297 29.5911C6.45986 28.6866 7.23116 28.1177 8.88821 26.9409Z" fill="#397E08" stroke="#397E08" stroke-width="4"/>
<path d="M26.25 31.875C26.25 33.9461 24.5711 35.625 22.5 35.625C20.4289 35.625 18.75 33.9461 18.75 31.875C18.75 29.8039 20.4289 28.125 22.5 28.125C24.5711 28.125 26.25 29.8039 26.25 31.875Z" stroke="#FAFAFA" stroke-width="4"/>
<path d="M13.0503 6.93322C10.5782 7.63903 8.80095 8.51459 7.1746 9.57103C4.59972 11.2436 3.49581 14.2576 3.79888 17.1659C3.92698 18.395 4.9137 18.9827 6.05792 18.6648C6.92721 18.4232 7.7979 18.1881 8.66177 17.9318C11.1882 17.1824 11.7825 16.2715 12.1336 13.6853L13.0503 6.93322ZM13.0503 6.93322C19.1599 5.18893 25.8401 5.18893 31.9498 6.93322H13.0503ZM31.9498 6.93322C34.4218 7.63903 36.1991 8.51459 37.8253 9.57103C40.4002 11.2436 41.5042 14.2576 41.2011 17.1659C41.073 18.395 40.0864 18.9827 38.9421 18.6648C38.0728 18.4232 37.2021 18.1881 36.3382 17.9318C33.8117 17.1824 33.2175 16.2715 32.8665 13.6853L31.9498 6.93322Z" fill="#397E08"/>
<path d="M13.0503 6.93322C10.5782 7.63903 8.80095 8.51459 7.1746 9.57103C4.59972 11.2436 3.49581 14.2576 3.79888 17.1659C3.92698 18.395 4.9137 18.9827 6.05792 18.6648C6.92721 18.4232 7.7979 18.1881 8.66177 17.9318C11.1882 17.1824 11.7825 16.2715 12.1336 13.6853L13.0503 6.93322ZM13.0503 6.93322C19.1599 5.18893 25.8401 5.18893 31.9498 6.93322M31.9498 6.93322C34.4218 7.63903 36.1991 8.51459 37.8253 9.57103C40.4003 11.2436 41.5043 14.2576 41.2011 17.1659C41.073 18.395 40.0864 18.9827 38.9421 18.6648C38.0728 18.4232 37.2021 18.1881 36.3383 17.9318C33.8117 17.1824 33.2175 16.2715 32.8665 13.6853L31.9498 6.93322Z" stroke="#397E08" stroke-width="4" stroke-linejoin="round"/>
</svg>
